<?xml version="1.0" standalone="no"?>
<!DOCTYPE svg PUBLIC "-//W3C//DTD SVG 20010904//EN"
 "http://www.w3.org/TR/2001/REC-SVG-20010904/DTD/svg10.dtd">
<svg version="1.0" xmlns="http://www.w3.org/2000/svg"
 width="320.000000pt" height="320.000000pt" viewBox="0 0 320.000000 320.000000"
 preserveAspectRatio="xMidYMid meet">
<metadata>
Created by potrace 1.14, written by Peter Selinger 2001-2017
</metadata>
<g transform="translate(0.000000,320.000000) scale(0.100000,-0.100000)"
fill="#000000" stroke="none">
<path d="M0 1600 l0 -1600 1600 0 1600 0 0 1600 0 1600 -1600 0 -1600 0 0
-1600z m2247 879 c54 -45 108 -91 120 -103 11 -12 40 -37 64 -56 23 -19 62
-54 87 -77 24 -24 48 -43 53 -43 5 0 9 -7 9 -15 0 -13 -49 -15 -385 -15 l-385
0 0 -770 c0 -424 -4 -770 -8 -770 -4 0 -50 41 -102 91 -52 50 -137 130 -187
179 l-93 88 0 554 0 555 25 11 c20 9 30 9 45 0 20 -12 20 -26 20 -538 l0 -525
92 -92 c51 -51 96 -93 100 -93 5 0 7 294 6 653 l-3 652 -334 3 -333 2 -56 48
c-31 26 -76 64 -98 85 -23 21 -57 49 -75 63 -19 13 -46 37 -61 52 -35 34 -85
77 -120 103 -16 11 -28 25 -28 30 0 5 305 9 774 9 l775 0 98 -81z"/>
<path d="M912 2428 c9 -13 49 -51 89 -85 l74 -62 615 0 615 0 -45 40 c-25 22
-67 60 -93 85 l-48 44 -302 -2 -302 -3 -3 -47 c-3 -40 -6 -47 -28 -52 -40 -10
-62 9 -66 57 l-3 42 -259 3 -259 2 15 -22z"/>
</g>
</svg>
